  0
SECTION
  2
HEADER
  9
$ACADVER
  1
AC1009
999
L-Edit DXF writer Version 2022.2
  9
$PLINEWID
 40
10.000000
  9
$EXTMIN
 10
-59250.000000
 20
-59250.000000
 30
0.0
  9
$EXTMAX
 10
59250.000000
 20
59250.000000
 30
0.0
  0
ENDSEC
  0
SECTION
  2
TABLES
  0
TABLE
  2
LTYPE
 70
       1
  0
LTYPE
  2
CONTINUOUS
 70
      64
  3
CONTINUOUS
 72
      65
 73
       0
 40
0.0
  0
ENDTAB
  0
TABLE
  2
LAYER
 70
       3
  0
LAYER
  2
0
 70
      64
  6
CONTINUOUS
 62
       7
  0
LAYER
  2
monaco_ou
 70
       0
  6
CONTINUOUS
 62
      43
  0
LAYER
  2
NANOCLIP_FEET
 70
       0
  6
CONTINUOUS
 62
      92
  0
ENDTAB
  0
ENDSEC
  0
SECTION
  2
BLOCKS
  0
BLOCK
  2
0_mask_label
  3
0_mask_label
  8
0
 67
       0
 70
       0
 10
0.0
 20
0.0
 30
0.0
  0
ENDBLK
  0
BLOCK
  2
4_device_label_C
  3
4_device_label_C
  8
0
 67
       0
 70
       0
 10
0.0
 20
0.0
 30
0.0
  0
ENDBLK
  0
BLOCK
  2
4_device_label_A
  3
4_device_label_A
  8
0
 67
       0
 70
       0
 10
0.0
 20
0.0
 30
0.0
  0
ENDBLK
  0
BLOCK
  2
4_device_label_G
  3
4_device_label_G
  8
0
 67
       0
 70
       0
 10
0.0
 20
0.0
 30
0.0
  0
ENDBLK
  0
BLOCK
  2
4_device_label_H
  3
4_device_label_H
  8
0
 67
       0
 70
       0
 10
0.0
 20
0.0
 30
0.0
  0
ENDBLK
  0
BLOCK
  2
4_device_label_I
  3
4_device_label_I
  8
0
 67
       0
 70
       0
 10
0.0
 20
0.0
 30
0.0
  0
ENDBLK
  0
BLOCK
  2
4_device_label_D
  3
4_device_label_D
  8
0
 67
       0
 70
       0
 10
0.0
 20
0.0
 30
0.0
  0
ENDBLK
  0
BLOCK
  2
4_device_label_J
  3
4_device_label_J
  8
0
 67
       0
 70
       0
 10
0.0
 20
0.0
 30
0.0
  0
ENDBLK
  0
BLOCK
  2
4_device_label_F
  3
4_device_label_F
  8
0
 67
       0
 70
       0
 10
0.0
 20
0.0
 30
0.0
  0
ENDBLK
  0
BLOCK
  2
4_device_label_K
  3
4_device_label_K
  8
0
 67
       0
 70
       0
 10
0.0
 20
0.0
 30
0.0
  0
ENDBLK
  0
BLOCK
  2
4_device_label_E
  3
4_device_label_E
  8
0
 67
       0
 70
       0
 10
0.0
 20
0.0
 30
0.0
  0
ENDBLK
  0
BLOCK
  2
4_device_label_B
  3
4_device_label_B
  8
0
 67
       0
 70
       0
 10
0.0
 20
0.0
 30
0.0
  0
ENDBLK
  0
ENDSEC
  0
SECTION
  2
ENTITIES
  0
POLYLINE
  8
NANOCLIP_FEET
 66
       1
 70
       1
 10
0.0
 20
0.0
 30
0.0
  0
VERTEX
  8
NANOCLIP_FEET
 10
22622.435000
 20
6976.248000
 30
0.0
  0
VERTEX
  8
NANOCLIP_FEET
 10
22687.435000
 20
6976.248000
 30
0.0
  0
VERTEX
  8
NANOCLIP_FEET
 10
22687.435000
 20
7093.748000
 30
0.0
  0
VERTEX
  8
NANOCLIP_FEET
 10
22622.435000
 20
7093.748000
 30
0.0
  0
SEQEND
  8
NANOCLIP_FEET
  0
POLYLINE
  8
NANOCLIP_FEET
 66
       1
 70
       1
 10
0.0
 20
0.0
 30
0.0
  0
VERTEX
  8
NANOCLIP_FEET
 10
22622.435000
 20
7115.248000
 30
0.0
  0
VERTEX
  8
NANOCLIP_FEET
 10
22687.435000
 20
7115.248000
 30
0.0
  0
VERTEX
  8
NANOCLIP_FEET
 10
22687.435000
 20
7232.748000
 30
0.0
  0
VERTEX
  8
NANOCLIP_FEET
 10
22622.435000
 20
7232.748000
 30
0.0
  0
SEQEND
  8
NANOCLIP_FEET
  0
POLYLINE
  8
NANOCLIP_FEET
 66
       1
 70
       1
 10
0.0
 20
0.0
 30
0.0
  0
VERTEX
  8
NANOCLIP_FEET
 10
22353.435000
 20
6976.248000
 30
0.0
  0
VERTEX
  8
NANOCLIP_FEET
 10
22418.435000
 20
6976.248000
 30
0.0
  0
VERTEX
  8
NANOCLIP_FEET
 10
22418.435000
 20
7093.748000
 30
0.0
  0
VERTEX
  8
NANOCLIP_FEET
 10
22353.435000
 20
7093.748000
 30
0.0
  0
SEQEND
  8
NANOCLIP_FEET
  0
POLYLINE
  8
NANOCLIP_FEET
 66
       1
 70
       1
 10
0.0
 20
0.0
 30
0.0
  0
VERTEX
  8
NANOCLIP_FEET
 10
22353.435000
 20
7115.248000
 30
0.0
  0
VERTEX
  8
NANOCLIP_FEET
 10
22418.435000
 20
7115.248000
 30
0.0
  0
VERTEX
  8
NANOCLIP_FEET
 10
22418.435000
 20
7232.748000
 30
0.0
  0
VERTEX
  8
NANOCLIP_FEET
 10
22353.435000
 20
7232.748000
 30
0.0
  0
SEQEND
  8
NANOCLIP_FEET
  0
POLYLINE
  8
monaco_ou
 66
       1
 70
       1
 10
0.0
 20
0.0
 30
0.0
  0
VERTEX
  8
monaco_ou
 10
19053.937000
 20
-26389.567000
 30
0.0
  0
VERTEX
  8
monaco_ou
 10
19143.931000
 20
-26479.609000
 30
0.0
  0
VERTEX
  8
monaco_ou
 10
25901.949000
 20
-26479.563000
 30
0.0
  0
VERTEX
  8
monaco_ou
 10
25991.949000
 20
-26389.563000
 30
0.0
  0
VERTEX
  8
monaco_ou
 10
25991.949000
 20
-20937.563000
 30
0.0
  0
VERTEX
  8
monaco_ou
 10
25901.949000
 20
-20847.563000
 30
0.0
  0
VERTEX
  8
monaco_ou
 10
22672.079000
 20
-18982.553000
 30
0.0
  0
VERTEX
  8
monaco_ou
 10
22671.119000
 20
-18982.553000
 30
0.0
  0
VERTEX
  8
monaco_ou
 10
22671.119000
 20
6777.116000
 30
0.0
  0
VERTEX
  8
monaco_ou
 10
22806.657000
 20
6817.066000
 30
0.0
  0
VERTEX
  8
monaco_ou
 10
22841.973000
 20
6935.299000
 30
0.0
  0
VERTEX
  8
monaco_ou
 10
23409.064000
 20
6935.299000
 30
0.0
  0
VERTEX
  8
monaco_ou
 10
23915.472000
 20
6729.566000
 30
0.0
  0
VERTEX
  8
monaco_ou
 10
24875.472000
 20
6729.566000
 30
0.0
  0
VERTEX
  8
monaco_ou
 10
24875.472000
 20
7479.566000
 30
0.0
  0
VERTEX
  8
monaco_ou
 10
23915.472000
 20
7479.566000
 30
0.0
  0
VERTEX
  8
monaco_ou
 10
23409.165000
 20
7273.918000
 30
0.0
  0
VERTEX
  8
monaco_ou
 10
22841.973000
 20
7273.918000
 30
0.0
  0
VERTEX
  8
monaco_ou
 10
22806.657000
 20
7392.066000
 30
0.0
  0
VERTEX
  8
monaco_ou
 10
22671.119000
 20
7432.016000
 30
0.0
  0
VERTEX
  8
monaco_ou
 10
22371.119000
 20
7432.016000
 30
0.0
  0
VERTEX
  8
monaco_ou
 10
22231.657000
 20
7392.066000
 30
0.0
  0
VERTEX
  8
monaco_ou
 10
22195.059000
 20
7274.157000
 30
0.0
  0
VERTEX
  8
monaco_ou
 10
21629.149000
 20
7274.157000
 30
0.0
  0
VERTEX
  8
monaco_ou
 10
21629.149000
 20
7273.918000
 30
0.0
  0
VERTEX
  8
monaco_ou
 10
21122.842000
 20
7479.566000
 30
0.0
  0
VERTEX
  8
monaco_ou
 10
20158.666000
 20
7479.566000
 30
0.0
  0
VERTEX
  8
monaco_ou
 10
20158.666000
 20
6729.566000
 30
0.0
  0
VERTEX
  8
monaco_ou
 10
21122.842000
 20
6729.566000
 30
0.0
  0
VERTEX
  8
monaco_ou
 10
21629.250000
 20
6935.299000
 30
0.0
  0
VERTEX
  8
monaco_ou
 10
22196.341000
 20
6935.299000
 30
0.0
  0
VERTEX
  8
monaco_ou
 10
22231.657000
 20
6817.066000
 30
0.0
  0
VERTEX
  8
monaco_ou
 10
22371.119000
 20
6777.116000
 30
0.0
  0
VERTEX
  8
monaco_ou
 10
22371.119000
 20
-18982.553000
 30
0.0
  0
VERTEX
  8
monaco_ou
 10
19143.949000
 20
-20847.563000
 30
0.0
  0
VERTEX
  8
monaco_ou
 10
19053.949000
 20
-20937.563000
 30
0.0
  0
SEQEND
  8
monaco_ou
  0
INSERT
  8
0
  2
0_mask_label
 10
-23307.692000
 20
-55786.515000
 30
0.0
  0
INSERT
  8
0
  2
4_device_label_C
 10
0.0
 20
90.000000
 30
0.0
 71
       2
 45
-34500.000000
  0
INSERT
  8
0
  2
4_device_label_A
 10
-55.304000
 20
29.663000
 30
0.0
 71
       2
 45
-34500.000000
  0
INSERT
  8
0
  2
4_device_label_G
 10
-39122.035000
 20
-6735.432000
 30
0.0
 50
180.000000
 71
       2
 45
-34500.000000
  0
INSERT
  8
0
  2
4_device_label_H
 10
0.0
 20
-60.000000
 30
0.0
 71
       2
 45
34500.000000
  0
INSERT
  8
0
  2
4_device_label_I
 10
0.0
 20
-60.000000
 30
0.0
 71
       2
 45
34500.000000
  0
INSERT
  8
0
  2
4_device_label_D
 10
0.0
 20
30.000000
 30
0.0
 71
       2
 45
-34500.000000
  0
INSERT
  8
0
  2
4_device_label_J
 10
16960.233000
 20
-6488.017000
 30
0.0
 50
180.000000
 71
       2
 45
-34500.000000
  0
INSERT
  8
0
  2
4_device_label_F
 10
0.0
 20
95.000000
 30
0.0
 71
       2
 45
-34500.000000
  0
INSERT
  8
0
  2
4_device_label_K
 10
35676.600000
 20
-6759.458000
 30
0.0
 50
180.000000
 71
       2
 45
-34500.000000
  0
INSERT
  8
0
  2
4_device_label_E
 10
0.0
 20
0.0
 30
0.0
 71
       2
 45
-34500.000000
  0
INSERT
  8
0
  2
4_device_label_B
 10
-8.893000
 20
112.311000
 30
0.0
 71
       2
 45
-34500.000000
  0
ENDSEC
  0
EOF
